<?xml version="1.0" encoding="UTF-8" standalone="no"?>
<!-- Created with Inkscape (http://www.inkscape.org/) -->

<svg
   width="208.82938"
   height="94.826431"
   viewBox="0 0 55.2528 25.089493"
   version="1.1"
   id="svg1"
   xml:space="preserve"
   xmlns="http://www.w3.org/2000/svg"
   xmlns:svg="http://www.w3.org/2000/svg"><defs
     id="defs1" /><g
     id="layer4"
     transform="translate(-0.18625997,1.5715179)"
     style="display:inline"><path
       id="path9-9"
       style="baseline-shift:baseline;display:inline;overflow:visible;fill:#6f3f1e;fill-opacity:1;fill-rule:nonzero;stroke-width:0.444923;stroke-linejoin:round;stroke-dasharray:none;paint-order:markers stroke fill;enable-background:accumulate;stop-color:#000000"
       d="m 27.814381,18.88375 a 0.06182615,0.06182615 0 0 0 -0.0086,5.67e-4 0.06182615,0.06182615 0 0 0 -0.04818,0.03288 c -0.343155,0.679122 -0.720434,1.110968 -1.018111,1.534537 -0.297677,0.423568 -0.514159,0.843778 -0.514159,1.478416 0,0.875935 0.711916,1.587824 1.587824,1.587824 0.875909,0 1.586691,-0.711916 1.586691,-1.587824 0,-0.666728 -0.242227,-1.099794 -0.55214,-1.521499 -0.309913,-0.421704 -0.685781,-0.83611 -0.97843,-1.488053 a 0.06182615,0.06182615 0 0 0 -0.05499,-0.03685 z m -1.178538,2.793005 a 0.14512042,0.14512042 0 0 1 0.141719,0.150223 c 0,0 -0.02784,0.743253 0.6298,1.092372 a 0.14512042,0.14512042 0 0 1 0.06009,0.195006 0.14512042,0.14512042 0 0 1 -0.195006,0.06009 C 26.460753,22.74354 26.486187,21.818472 26.486187,21.818472 a 0.14512042,0.14512042 0 0 1 0.149656,-0.141719 z" /><path
       d="m 9.351742,8.1254518 q 0,0.625993 -0.366147,1.003951 -0.3543356,0.377959 -0.9685186,0.377959 -0.637805,0 -1.003952,-0.38977 -0.3661471,-0.389769 -0.3661471,-1.122063 v -0.862217 q 0,-0.744106 -0.4015808,-1.157498 -0.3897696,-0.425203 -1.063008,-0.425203 -0.6968608,0 -1.2283648,0.49607 -0.5196928,0.496071 -0.8031616,1.417344 -0.2834689,0.909463 -0.2834689,2.161449 0,1.5590782 0.4488257,2.6338972 0.4488256,1.063008 1.2165536,1.618135 0.7795392,0.543315 1.7598688,0.543315 1.0748191,0 1.8425471,-0.484259 0.7677276,-0.484259 1.0393856,-1.511834 0.01181,-0.04725 0.03543,-0.05906 0.02362,-0.02362 0.04725,-0.01181 0.03543,0 0.04725,0.03543 0.01181,0.02362 0,0.07087 -0.224413,1.18112 -0.8385946,2.019715 -0.602372,0.826784 -1.523645,1.263798 -0.9094625,0.437015 -2.0787713,0.437015 -1.3346656,0 -2.3976737,-0.59056 -1.0511968,-0.59056 -1.66537918,-1.748058 -0.6141824,-1.157497 -0.6141824,-2.846499 0,-1.6181342 0.6614272,-2.8819322 0.67323838,-1.275609 1.84254718,-2.019715 1.1811201,-0.744106 2.7165761,-0.744106 1.2756091,0 2.1496381,0.366148 0.874029,0.366147 1.3346656,0.99214 0.460637,0.625994 0.460637,1.417344 z m 6.259944,-2.775632 q 1.559078,0 2.763821,0.696861 1.204742,0.696861 1.889792,1.937037 0.685049,1.228364 0.685049,2.8346872 0,1.582701 -0.708672,2.799254 -0.69686,1.204743 -1.937036,1.889792 -1.240176,0.68505 -2.834688,0.68505 -1.559079,0 -2.763821,-0.673238 -1.192931,-0.68505 -1.877981,-1.889792 -0.673238,-1.216554 -0.673238,-2.811066 0,-1.5945122 0.69686,-2.8228772 0.696861,-1.228365 1.925226,-1.937037 1.240176,-0.708672 2.834688,-0.708671 z m 0.578749,10.6418912 q 0.732294,-0.07087 1.192931,-0.708672 0.472448,-0.637805 0.625994,-1.830736 0.165356,-1.192932 -0.03543,-2.917367 -0.20079,-1.7480572 -0.625994,-2.8701212 -0.425203,-1.133876 -1.039385,-1.653568 -0.614183,-0.531503 -1.381911,-0.448826 -0.755916,0.07087 -1.216553,0.720483 -0.460637,0.649616 -0.602371,1.842547 -0.141735,1.192932 0.05906,2.8937442 0.20079,1.712624 0.625993,2.8465 0.437015,1.122064 1.051197,1.665379 0.614182,0.531504 1.346477,0.460637 z m 11.834817,-1.133876 v -0.1063 l -0.129923,0.118112 V 7.2632348 q 0,-0.850407 -0.354336,-1.299232 -0.354336,-0.448826 -1.015763,-0.448826 -0.732295,0 -1.098442,0.366147 -0.366147,0.366148 -0.366147,0.838596 v 0.956707 q 0,0.59056 -0.413392,0.99214 -0.413392,0.40158 -1.074819,0.40158 -0.460637,0 -0.767728,-0.271657 -0.29528,-0.283468 -0.29528,-0.850406 0,-0.625993 0.49607,-1.216553 0.496071,-0.602371 1.464589,-0.992141 0.98033,-0.38977 2.397674,-0.38977 1.937036,0 2.893744,0.814973 0.968518,0.803162 0.968518,2.291373 v 6.1300122 q 0,0.413392 0.141734,0.602371 0.141735,0.177168 0.354336,0.177168 0.212602,0 0.377959,-0.129923 0.165357,-0.129923 0.212601,-0.437015 0,-0.03543 0.01181,-0.04724 0.02362,-0.02362 0.04724,-0.02362 0.02362,0 0.03543,0.02362 0.02362,0.01181 0.02362,0.04724 0,0.224413 -0.212601,0.543316 -0.200791,0.318902 -0.661427,0.578748 -0.460637,0.248036 -1.228365,0.248036 -0.944896,0 -1.381911,-0.366148 -0.425203,-0.366147 -0.425203,-0.944896 z m -6.10639,-1.192931 q 0,-1.287421 1.063008,-2.06696 1.063008,-0.79135 3.378003,-0.79135 0.720483,0 1.18112,0.153545 0.472448,0.141735 0.874029,0.354336 l -0.09449,0.08268 q -0.401581,-0.188979 -0.814973,-0.29528 -0.413392,-0.106301 -0.933084,-0.106301 -0.88584,0 -1.3701,0.59056 -0.472448,0.59056 -0.472448,1.665379 0,1.039386 0.460637,1.582701 0.460637,0.531504 1.192931,0.531504 0.496071,0 0.968519,-0.224413 0.484259,-0.236224 0.803161,-0.673238 l 0.129924,0.07087 q -0.519693,0.79135 -1.429156,1.216554 -0.897651,0.413392 -1.937036,0.413392 -1.334666,0 -2.173261,-0.696861 -0.826784,-0.708672 -0.826784,-1.807114 z m 18.271922,0.933085 v -0.05906 -14.79943417 q 0,-0.07087 -0.03543,-0.1063 -0.03543,-0.04724 -0.118112,-0.04724 h -0.767731 q -0.05906,0 -0.08268,-0.02362 -0.02362,-0.02362 -0.02362,-0.05906 0,-0.04725 0.02362,-0.05906 0.03543,-0.02362 0.07087,-0.03543 l 3.389815,-0.94489603 q 0.106301,-0.02362 0.141734,-0.02362 0.04724,-0.01181 0.09449,-0.01181 0.05906,0 0.09449,0.03543 0.03543,0.03543 0.03543,0.09449 V 15.306661 q 0,0.153546 0.05906,0.248035 0.07087,0.09449 0.224413,0.118112 l 0.649616,0.118112 q 0.07087,0 0.09449,0.03543 0.02362,0.02362 0.02362,0.05906 0,0.02362 -0.02362,0.04724 -0.02362,0.02362 -0.07087,0.02362 h -3.472493 q -0.141734,0 -0.224412,-0.08268 -0.08268,-0.08268 -0.08268,-0.259847 z m -7.488301,-3.519738 q 0,-1.7716802 0.661428,-3.0472892 0.661427,-1.287421 1.77168,-1.984282 1.122064,-0.696861 2.480352,-0.696861 1.169308,0 1.913414,0.460637 0.755917,0.448827 1.204742,1.240176 l -0.212601,0.106301 q -0.330714,-0.661426 -0.897651,-1.039386 -0.566938,-0.389769 -1.346477,-0.389769 -0.755917,0 -1.370099,0.49607 -0.614183,0.496071 -0.98033,1.618135 -0.366147,1.110252 -0.366147,2.9764222 0,1.641757 0.307091,2.692954 0.318902,1.051196 0.862218,1.559078 0.555126,0.507882 1.263798,0.507882 0.59056,0 1.204742,-0.330714 0.614183,-0.330714 1.18112,-1.08663 l 0.129924,0.141734 q -0.850407,1.027574 -1.653568,1.464589 -0.803162,0.425203 -1.795303,0.425203 -1.275609,0 -2.26775,-0.614182 -0.98033,-0.625994 -1.535456,-1.77168 -0.555127,-1.145687 -0.555127,-2.728388 z M 50.10037,5.3498198 q 1.559078,0 2.763821,0.696861 1.204742,0.696861 1.889792,1.937037 0.685049,1.228364 0.685049,2.8346872 0,1.582701 -0.708672,2.799254 -0.696861,1.204743 -1.937037,1.889792 -1.240176,0.68505 -2.834688,0.68505 -1.559078,0 -2.763821,-0.673238 -1.192931,-0.68505 -1.87798,-1.889792 -0.673239,-1.216554 -0.673239,-2.811066 0,-1.5945122 0.696861,-2.8228772 0.696861,-1.228365 1.925226,-1.937037 1.240176,-0.708672 2.834688,-0.708671 z m 0.578749,10.6418912 q 0.732294,-0.07087 1.192931,-0.708672 0.472448,-0.637805 0.625993,-1.830736 0.165357,-1.192932 -0.03543,-2.917367 -0.200791,-1.7480572 -0.625994,-2.8701202 -0.425203,-1.133876 -1.039385,-1.653568 -0.614183,-0.531504 -1.381911,-0.448826 -0.755917,0.07087 -1.216554,0.720483 -0.460636,0.649616 -0.602371,1.842547 -0.141734,1.192931 0.05906,2.8937432 0.200791,1.712624 0.625994,2.8465 0.437014,1.122064 1.051197,1.665379 0.614182,0.531504 1.346477,0.460637 z"
       id="text5-7"
       style="color:#ffffff;font-weight:600;font-size:23.6224px;font-family:Fraunces, Georgia, serif;fill:#2b1f17;stroke-width:0.3691px"
       aria-label="coado" /><path
       id="path13"
       style="baseline-shift:baseline;display:inline;overflow:visible;opacity:1;vector-effect:none;fill:#2b1f17;fill-opacity:1;stroke-linecap:square;stroke-linejoin:round;paint-order:markers stroke fill;enable-background:accumulate;stop-color:#000000;stop-opacity:1"
       d="m 0.18573922,21.342758 v 0.31626 h 0.160197 24.55612978 v -0.31626 H 0.34593622 Z m 30.53716178,0 v 0.31626 h 24.716327 0.158646 v -0.31626 h -0.158646 z" /></g></svg>
