<svg
   width="64"
   height="64"
   viewBox="0 0 16.933342 16.933332"
   xmlns="http://www.w3.org/2000/svg">
  <rect
    width="16.933338"
    height="16.933338"
    x="0"
    y="0"
    rx="4.7625012"
    fill="#d4c6ae" />
  <path
    fill="#6f3f1e"
    d="m 8.471156,2.51990 a 0.15867455,0.15867455 0 0 0 -0.02196,0.0015 0.15867455,0.15867455 0 0 0 -0.12365,0.08438 c -0.880693,1.742944 -1.848967,2.851261 -2.612944,3.938336 -0.763978,1.087073 -1.31957,2.165525 -1.31957,3.7943 0,2.248056 1.827106,4.075092 4.075092,4.075092 2.247988,0 4.072183,-1.827106 4.072183,-4.075092 0,-1.711133 -0.621665,-2.822581 -1.417045,-3.904873 -0.795381,-1.082289 -1.760033,-2.145844 -2.511105,-3.819032 a 0.15867455,0.15867455 0 0 0 -0.141133,-0.09457 z m -3.024674,7.168145 a 0.37244625,0.37244625 0 0 1 0.363716,0.385542 c 0,0 -0.07146,1.907531 1.616361,2.803535 a 0.37244625,0.37244625 0 0 1 0.154224,0.500476 0.37244625,0.37244625 0 0 1 -0.500475,0.154224 C 4.997121,12.42591 5.062395,10.05176 5.062395,10.05176 a 0.37244625,0.37244625 0 0 1 0.384087,-0.363718 z" />
</svg>
