<?xml version="1.0" encoding="UTF-8" standalone="no"?>
<!-- Created with Inkscape (http://www.inkscape.org/) -->

<svg
   width="64"
   height="63.999996"
   viewBox="0 0 16.933342 16.933332"
   version="1.1"
   id="svg1"
   xml:space="preserve"
   xmlns="http://www.w3.org/2000/svg"
   xmlns:svg="http://www.w3.org/2000/svg"><defs
     id="defs1" /><g
     id="layer3"
     style="display:inline"
     transform="translate(-53.083631,-58.972264)"><g
       id="layer5"
       style="display:inline"><rect
         style="fill:#d4c6ae;fill-opacity:1;stroke-width:0.268173;stroke-linecap:square;stroke-linejoin:bevel;paint-order:markers stroke fill"
         id="rect6"
         width="16.933338"
         height="16.933338"
         x="53.083633"
         y="58.972263"
         rx="4.7625012" /><path
         id="path9-7"
         style="baseline-shift:baseline;display:inline;overflow:visible;fill:#6f3f1e;fill-opacity:1;fill-rule:nonzero;stroke-width:1.14188;stroke-linejoin:round;stroke-dasharray:none;paint-order:markers stroke fill;enable-background:accumulate;stop-color:#000000"
         d="m 61.55479,61.492175 a 0.15867455,0.15867455 0 0 0 -0.02196,0.0015 0.15867455,0.15867455 0 0 0 -0.12365,0.08438 c -0.880693,1.742944 -1.848967,2.851261 -2.612944,3.938336 -0.763978,1.087073 -1.31957,2.165525 -1.31957,3.7943 0,2.248056 1.827106,4.075092 4.075092,4.075092 2.247988,0 4.072183,-1.827106 4.072183,-4.075092 0,-1.711133 -0.621665,-2.822581 -1.417045,-3.904873 -0.795381,-1.082289 -1.760033,-2.145844 -2.511105,-3.819032 a 0.15867455,0.15867455 0 0 0 -0.141133,-0.09457 z m -3.024674,7.168145 a 0.37244625,0.37244625 0 0 1 0.363716,0.385542 c 0,0 -0.07146,1.907531 1.616361,2.803535 a 0.37244625,0.37244625 0 0 1 0.154224,0.500476 0.37244625,0.37244625 0 0 1 -0.500475,0.154224 C 58.080755,71.39819 58.146029,69.024038 58.146029,69.024038 a 0.37244625,0.37244625 0 0 1 0.384087,-0.363718 z" /></g></g></svg>
